<svg width="196" height="104" viewBox="0 0 196 104" fill="none" xmlns="http://www.w3.org/2000/svg">
<path d="M168.93 12.98L150.6 65.29L132.53 12.98H118.47L143.91 86.61H157.09L182.97 12.98H168.93Z" fill="black"/>
<path d="M121.41 73.06C118.12 74.54 114.5 75.28 110.53 75.28C105.88 75.28 101.65 74.22 97.85 72.1C94.05 69.98 91.1 67.07 89.02 63.35C86.94 59.63 85.9 55.38 85.9 50.59C85.9 43.71 88.25 37.93 92.95 33.24C97.65 28.55 103.43 26.2 110.29 26.2C112.94 26.2 115.5 26.57 117.98 27.3L112.93 13.04C112.13 12.99 111.32 12.96 110.51 12.96C103.54 12.96 97.04 14.65 91 18.04C84.96 21.43 80.32 25.9 77.08 31.47C73.84 37.04 72.22 43.4 72.22 50.56C72.22 61.63 75.78 70.7 82.89 77.78C90 84.86 99.14 88.4 110.31 88.4C116.36 88.4 121.75 87.4 126.47 85.4C129.63 84.06 132.93 81.98 136.36 79.21L131.55 65.62C127.88 69.18 124.5 71.67 121.41 73.06Z" fill="black"/>
<path d="M66.8599 63.03C65.6999 59.2 65.0999 55.06 65.0999 50.58C65.0999 50.45 65.1099 50.32 65.1099 50.19H48.8299V63.03H57.4899C58.3299 64.26 59.1299 67 59.1799 68.65C59.2599 71.49 57.1899 73.75 56.3199 74.6C54.3399 75.09 52.1799 75.33 49.8399 75.33C42.5699 75.33 36.4599 72.92 31.5099 68.1C26.5599 63.28 24.0799 57.41 24.0799 50.47C24.0799 43.76 26.4699 38.07 31.2399 33.38C36.0099 28.69 41.9299 26.35 49.0099 26.35C56.3499 26.35 62.8499 28.99 68.5399 34.27C68.9799 33.32 69.4499 32.39 69.9799 31.48C71.7799 28.39 74.0199 25.65 76.6799 23.24C73.3299 20.18 69.9299 17.92 66.4799 16.44C61.0399 14.13 55.1999 12.97 48.9499 12.97C36.9999 12.97 27.2999 17.15 19.8499 25.52C13.5699 32.55 10.4299 40.82 10.4299 50.32C10.4299 57.25 12.1299 63.72 15.5299 69.7C18.9299 75.69 23.5499 80.3 29.3999 83.54C35.2399 86.78 41.8899 88.4 49.3499 88.4C56.3199 88.4 62.3899 86.92 67.5599 83.96C70.5399 82.25 73.1899 80.09 75.5299 77.5C72.2499 74.17 69.7499 70.4 68.0199 66.19L66.8599 63.03Z" fill="black"/>
<path d="M169 13H183L157 86.5L150.5 65L169 13Z" fill="#0598CE"/>
</svg>
